<svg xmlns="http://www.w3.org/2000/svg" xmlns:xlink="http://www.w3.org/1999/xlink" width="1700" zoomAndPan="magnify" viewBox="0 0 1275 487.499991" height="650" preserveAspectRatio="xMidYMid meet" version="1.0"><defs><g/><clipPath id="fc9b144da4"><path d="M 79 72 L 1274.347656 72 L 1274.347656 487 L 79 487 Z M 79 72 " clip-rule="nonzero"/></clipPath><clipPath id="54ca24bc82"><path d="M 81 73 L 247 73 L 247 175 L 81 175 Z M 81 73 " clip-rule="nonzero"/></clipPath><clipPath id="d8ef4046dd"><path d="M 10.765625 103.511719 L 141.15625 -26.875 L 262.316406 94.28125 L 131.925781 224.671875 Z M 10.765625 103.511719 " clip-rule="nonzero"/></clipPath><clipPath id="97d31cede5"><path d="M 10.765625 103.511719 L 141.15625 -26.875 L 262.316406 94.28125 L 131.925781 224.671875 Z M 10.765625 103.511719 " clip-rule="nonzero"/></clipPath><clipPath id="e6b47a4a3a"><path d="M 81 72 L 246 72 L 246 173 L 81 173 Z M 81 72 " clip-rule="nonzero"/></clipPath><clipPath id="5f0439b4f6"><path d="M 10.765625 103.511719 L 141.15625 -26.875 L 262.316406 94.28125 L 131.925781 224.671875 Z M 10.765625 103.511719 " clip-rule="nonzero"/></clipPath><clipPath id="9ec0452d6c"><path d="M 10.765625 103.511719 L 141.15625 -26.875 L 262.316406 94.28125 L 131.925781 224.671875 Z M 10.765625 103.511719 " clip-rule="nonzero"/></clipPath><clipPath id="b41934e5f9"><path d="M 64 7 L 212 7 L 212 154 L 64 154 Z M 64 7 " clip-rule="nonzero"/></clipPath><clipPath id="9c0d120dee"><path d="M 10.765625 103.511719 L 141.15625 -26.875 L 262.316406 94.28125 L 131.925781 224.671875 Z M 10.765625 103.511719 " clip-rule="nonzero"/></clipPath><clipPath id="ab3f55923f"><path d="M 10.765625 103.511719 L 141.15625 -26.875 L 262.316406 94.28125 L 131.925781 224.671875 Z M 10.765625 103.511719 " clip-rule="nonzero"/></clipPath><clipPath id="e2657e0ff6"><path d="M 64 6 L 164 6 L 164 59 L 64 59 Z M 64 6 " clip-rule="nonzero"/></clipPath><clipPath id="2fca05d8c4"><path d="M 10.765625 103.511719 L 141.15625 -26.875 L 262.316406 94.28125 L 131.925781 224.671875 Z M 10.765625 103.511719 " clip-rule="nonzero"/></clipPath><clipPath id="e28983a0de"><path d="M 10.765625 103.511719 L 141.15625 -26.875 L 262.316406 94.28125 L 131.925781 224.671875 Z M 10.765625 103.511719 " clip-rule="nonzero"/></clipPath><clipPath id="231fdaa72b"><path d="M 103 87 L 212 87 L 212 154 L 103 154 Z M 103 87 " clip-rule="nonzero"/></clipPath><clipPath id="f738f0d82b"><path d="M 10.765625 103.511719 L 141.15625 -26.875 L 262.316406 94.28125 L 131.925781 224.671875 Z M 10.765625 103.511719 " clip-rule="nonzero"/></clipPath><clipPath id="49ff7593ed"><path d="M 10.765625 103.511719 L 141.15625 -26.875 L 262.316406 94.28125 L 131.925781 224.671875 Z M 10.765625 103.511719 " clip-rule="nonzero"/></clipPath></defs><g fill="#fff2d8" fill-opacity="1"><g transform="translate(145.591411, 391.342696)"><g><path d="M 189.613281 24.035156 C 189.234375 22.128906 188.851562 20.21875 187.707031 19.074219 C 185.417969 15.640625 180.457031 15.261719 176.261719 14.878906 C 157.949219 14.117188 144.214844 5.339844 138.109375 -12.207031 C 137.726562 -12.589844 137.726562 -12.972656 137.726562 -13.734375 C 137.347656 -14.117188 137.347656 -14.496094 137.347656 -14.878906 L 136.582031 -17.929688 C 135.058594 -25.179688 135.4375 -32.8125 134.675781 -40.058594 L 134.675781 -42.730469 C 134.292969 -44.257812 134.292969 -46.164062 133.53125 -48.070312 C 130.859375 -69.4375 122.847656 -90.800781 109.496094 -107.589844 C 108.351562 -109.113281 106.824219 -110.640625 106.824219 -112.929688 C 106.445312 -116.746094 111.785156 -118.269531 114.074219 -120.179688 C 122.46875 -127.046875 127.808594 -136.582031 130.480469 -146.886719 C 133.914062 -158.710938 134.292969 -172.066406 132.003906 -184.273438 C 127.425781 -206.785156 114.074219 -235.015625 89.65625 -242.265625 C 74.015625 -246.84375 57.226562 -249.511719 40.824219 -249.511719 C 31.667969 -249.511719 22.890625 -248.75 14.117188 -247.222656 C 9.539062 -246.078125 4.960938 -244.933594 2.289062 -241.5 C -1.144531 -236.921875 0 -230.4375 1.144531 -224.714844 C 5.722656 -204.875 7.628906 -184.65625 7.25 -164.054688 C 6.867188 -152.226562 3.816406 -140.78125 1.144531 -129.335938 C 1.144531 -126.664062 1.144531 -124.375 1.144531 -121.703125 C 4.578125 -105.300781 8.011719 -88.132812 8.394531 -71.34375 C 8.773438 -49.980469 4.960938 -29.757812 1.144531 -8.773438 C 0.761719 -7.25 0.382812 -4.960938 1.527344 -3.816406 C 2.289062 -3.050781 3.433594 -2.671875 4.195312 -2.289062 C 13.351562 0.382812 24.796875 0.382812 34.71875 0.382812 C 40.441406 0.382812 65.621094 -1.527344 69.054688 -6.484375 C 70.199219 -7.628906 70.199219 -9.539062 70.199219 -11.0625 C 70.199219 -15.640625 69.054688 -19.839844 68.292969 -24.417969 C 64.476562 -41.585938 62.570312 -58.753906 61.804688 -76.304688 C 61.804688 -78.59375 62.1875 -83.171875 65.621094 -83.171875 C 72.488281 -83.171875 80.117188 -59.515625 81.261719 -56.464844 C 87.367188 -37.769531 86.222656 -19.457031 88.132812 0.382812 C 90.039062 16.40625 96.523438 32.046875 106.824219 44.636719 C 120.558594 61.042969 151.464844 66.765625 172.445312 70.199219 C 175.117188 70.582031 178.550781 71.726562 181.222656 71.726562 C 183.511719 71.726562 185.417969 71.34375 186.945312 69.054688 C 188.851562 66.382812 188.851562 62.1875 189.613281 59.136719 C 189.996094 55.320312 190.757812 51.503906 190.757812 47.308594 C 191.140625 39.679688 190.757812 31.667969 189.613281 24.035156 Z M 82.40625 -156.042969 C 77.828125 -149.175781 70.199219 -146.503906 62.1875 -146.503906 L 61.042969 -146.503906 C 60.28125 -146.503906 59.898438 -146.886719 59.515625 -147.265625 C 58.753906 -148.03125 58.753906 -148.792969 58.371094 -149.554688 C 55.320312 -163.289062 56.082031 -177.789062 59.136719 -191.523438 C 59.515625 -192.667969 59.898438 -193.8125 60.660156 -194.574219 C 61.425781 -194.957031 62.1875 -194.957031 63.332031 -194.957031 C 83.171875 -195.339844 93.855469 -171.300781 82.40625 -156.042969 Z M 82.40625 -156.042969 "/></g></g></g><g fill="#fff2d8" fill-opacity="1"><g transform="translate(302.009771, 391.342696)"><g><path d="M 190.378906 -126.28125 C 190.378906 -129.335938 189.613281 -132.003906 187.707031 -135.4375 C 182.367188 -144.976562 180.457031 -155.660156 177.789062 -165.960938 C 165.960938 -208.308594 146.886719 -247.988281 97.667969 -247.988281 C 62.1875 -247.988281 46.925781 -230.4375 30.523438 -202.585938 C 24.796875 -192.285156 20.601562 -181.601562 18.3125 -170.539062 C 16.40625 -163.671875 15.640625 -156.042969 13.734375 -149.175781 C 11.445312 -141.925781 8.394531 -134.675781 3.050781 -129.335938 C 1.527344 -127.808594 0 -126.664062 0 -124.757812 C 0 -123.613281 0.382812 -122.46875 1.144531 -121.324219 C 6.105469 -112.167969 9.917969 -102.628906 12.972656 -92.710938 C 15.640625 -83.171875 16.40625 -72.871094 20.21875 -63.332031 C 28.234375 -43.113281 51.886719 -6.867188 75.539062 -1.90625 C 79.355469 -1.144531 82.789062 -0.761719 86.605469 -0.761719 C 91.183594 -0.761719 95.378906 -0.382812 99.957031 -0.382812 C 101.484375 -0.382812 103.011719 0 104.535156 0 C 106.445312 0 108.734375 -0.382812 110.640625 -0.761719 C 114.457031 -1.527344 117.890625 -3.433594 121.324219 -4.960938 C 146.121094 -17.550781 162.527344 -38.152344 172.066406 -64.09375 C 176.644531 -76.683594 178.933594 -90.039062 183.511719 -103.011719 C 185.417969 -108.351562 187.707031 -114.074219 189.234375 -119.414062 C 189.996094 -122.085938 190.378906 -124.375 190.378906 -126.28125 Z M 123.992188 -73.25 C 118.652344 -62.570312 108.351562 -52.269531 95.761719 -52.269531 C 88.132812 -52.269531 81.644531 -57.226562 77.066406 -62.949219 C 63.714844 -79.355469 62.570312 -101.101562 70.960938 -119.414062 C 71.726562 -120.558594 72.488281 -122.085938 72.105469 -123.230469 C 72.105469 -124.757812 70.960938 -126.28125 70.199219 -127.425781 C 61.425781 -141.164062 68.292969 -159.476562 75.160156 -172.066406 C 77.828125 -176.261719 80.5 -180.457031 84.316406 -183.890625 C 88.511719 -187.324219 93.089844 -188.851562 98.433594 -188.851562 C 107.96875 -188.46875 114.835938 -181.222656 119.035156 -173.589844 C 123.613281 -166.722656 126.664062 -159.476562 128.191406 -151.464844 C 129.714844 -143.070312 132.003906 -135.4375 126.664062 -127.425781 C 125.902344 -126.28125 124.757812 -124.757812 124.757812 -123.230469 C 124.757812 -122.085938 125.136719 -120.558594 125.902344 -119.414062 C 132.386719 -104.917969 132.003906 -87.367188 123.992188 -73.25 Z M 123.992188 -73.25 "/></g></g></g><g fill="#fff2d8" fill-opacity="1"><g transform="translate(511.457782, 391.342696)"><g><path d="M 134.675781 -247.988281 C 123.613281 -246.84375 112.929688 -245.699219 102.246094 -244.171875 L 85.84375 -242.644531 C 84.316406 -242.644531 82.789062 -242.644531 81.261719 -242.644531 C 77.828125 -242.644531 74.777344 -242.644531 71.34375 -242.644531 C 68.292969 -242.644531 65.238281 -242.265625 62.570312 -242.265625 C 50.359375 -242.265625 43.113281 -243.789062 28.234375 -245.699219 C 24.417969 -246.078125 20.601562 -246.84375 16.40625 -246.84375 C 14.878906 -246.84375 12.972656 -246.84375 11.445312 -246.460938 C 8.773438 -246.078125 5.722656 -245.316406 4.195312 -243.027344 C 3.050781 -241.5 2.671875 -239.59375 2.289062 -238.066406 C -0.761719 -222.042969 -0.382812 -206.019531 1.90625 -189.996094 C 2.289062 -187.707031 3.050781 -185.035156 5.339844 -184.273438 C 5.722656 -184.273438 6.105469 -184.273438 6.484375 -184.273438 C 8.773438 -184.273438 11.828125 -185.800781 14.117188 -186.5625 C 17.550781 -187.324219 22.128906 -188.46875 26.707031 -188.46875 C 43.113281 -188.46875 43.113281 -175.5 43.113281 -162.527344 C 43.492188 -155.660156 42.730469 -148.792969 41.585938 -141.925781 C 40.441406 -135.820312 35.863281 -130.859375 35.480469 -124.757812 C 35.480469 -121.703125 36.625 -118.652344 37.390625 -115.601562 C 44.636719 -91.945312 46.925781 -66.765625 44.636719 -41.96875 C 43.875 -33.574219 42.347656 -25.179688 41.203125 -16.785156 C 40.824219 -11.445312 36.625 1.527344 44.636719 2.671875 C 52.269531 3.433594 59.898438 3.816406 67.527344 3.816406 C 76.304688 3.816406 85.078125 3.433594 94.234375 3.050781 C 96.144531 3.050781 98.433594 2.671875 99.195312 0.761719 C 100.722656 -1.527344 98.8125 -5.339844 98.433594 -7.628906 C 97.667969 -11.445312 97.289062 -14.878906 96.90625 -18.695312 C 96.144531 -25.941406 95.761719 -33.574219 95.378906 -40.824219 C 95.378906 -68.671875 93.089844 -96.144531 103.773438 -122.46875 C 104.15625 -123.613281 104.535156 -124.375 104.535156 -125.519531 C 104.535156 -127.046875 104.15625 -128.191406 103.390625 -129.335938 C 96.523438 -144.597656 95 -161.765625 98.8125 -177.789062 C 99.578125 -181.222656 100.722656 -184.65625 103.390625 -186.5625 C 106.0625 -189.234375 110.257812 -189.613281 114.074219 -189.613281 C 121.703125 -189.613281 121.703125 -188.089844 128.953125 -186.179688 C 130.859375 -185.800781 132.769531 -185.417969 134.675781 -185.417969 C 140.019531 -185.417969 141.542969 -189.234375 142.308594 -194.191406 C 143.832031 -202.585938 144.597656 -210.980469 144.214844 -219.375 C 144.214844 -223.1875 144.214844 -227.003906 143.832031 -230.820312 C 143.832031 -234.253906 143.832031 -237.6875 143.453125 -241.121094 C 142.6875 -243.789062 141.925781 -246.460938 139.636719 -247.222656 C 139.253906 -247.605469 138.492188 -247.988281 137.726562 -247.988281 Z M 134.675781 -247.988281 "/></g></g></g><g fill="#fff2d8" fill-opacity="1"><g transform="translate(671.691228, 391.342696)"><g><path d="M 66.765625 -6.105469 C 69.4375 -8.773438 69.4375 -13.734375 68.671875 -17.929688 C 67.527344 -27.851562 67.148438 -37.390625 66.003906 -46.925781 C 64.859375 -57.226562 63.714844 -67.910156 63.714844 -78.210938 C 63.714844 -95.761719 66.003906 -103.011719 71.34375 -119.414062 C 72.105469 -121.703125 72.871094 -123.992188 71.726562 -126.28125 C 61.804688 -145.742188 61.425781 -171.300781 63.332031 -193.046875 C 64.476562 -202.585938 66.003906 -212.125 68.671875 -220.898438 C 70.199219 -226.242188 75.539062 -235.015625 72.488281 -240.355469 C 70.582031 -244.933594 40.058594 -246.460938 35.101562 -246.460938 C 28.234375 -246.460938 8.394531 -245.699219 4.195312 -239.210938 C 2.671875 -236.160156 3.433594 -231.199219 3.816406 -227.765625 C 4.195312 -222.425781 5.722656 -217.085938 6.484375 -211.742188 C 8.394531 -200.679688 9.539062 -189.613281 9.539062 -178.550781 C 9.917969 -161.382812 7.628906 -144.214844 1.90625 -128.191406 C 0.761719 -125.902344 0 -123.613281 0 -120.941406 C 0 -119.796875 0.382812 -118.269531 0.761719 -117.125 C 8.394531 -91.183594 11.0625 -64.09375 5.339844 -37.769531 C 3.816406 -31.285156 1.90625 -24.796875 1.144531 -18.3125 C 0.382812 -14.878906 0.382812 -11.445312 1.90625 -8.394531 C 3.433594 -5.339844 6.484375 -3.050781 9.539062 -2.289062 C 12.972656 -1.144531 16.40625 -0.761719 19.839844 -0.761719 C 24.796875 -0.382812 29.757812 -0.382812 34.335938 -0.382812 C 41.203125 -0.382812 61.804688 -1.144531 66.765625 -6.105469 Z M 66.765625 -6.105469 "/></g></g></g><g fill="#fff2d8" fill-opacity="1"><g transform="translate(764.397701, 391.342696)"><g><path d="M 48.835938 -6.105469 C 48.835938 -12.972656 46.546875 -18.695312 41.585938 -23.273438 C 37.007812 -28.234375 31.285156 -30.523438 24.417969 -30.523438 C 17.550781 -30.523438 11.828125 -28.234375 7.25 -23.273438 C 2.289062 -18.695312 0 -12.972656 0 -6.105469 C 0 0.761719 2.289062 6.484375 7.25 11.0625 C 11.828125 16.023438 17.550781 18.3125 24.417969 18.3125 C 31.285156 18.3125 37.007812 16.023438 41.585938 11.0625 C 46.546875 6.484375 48.835938 0.761719 48.835938 -6.105469 Z M 48.835938 -6.105469 "/></g></g></g><g fill="#fff2d8" fill-opacity="1"><g transform="translate(832.306189, 391.342696)"><g><path d="M 190.378906 -126.28125 C 190.378906 -129.335938 189.613281 -132.003906 187.707031 -135.4375 C 182.367188 -144.976562 180.457031 -155.660156 177.789062 -165.960938 C 165.960938 -208.308594 146.886719 -247.988281 97.667969 -247.988281 C 62.1875 -247.988281 46.925781 -230.4375 30.523438 -202.585938 C 24.796875 -192.285156 20.601562 -181.601562 18.3125 -170.539062 C 16.40625 -163.671875 15.640625 -156.042969 13.734375 -149.175781 C 11.445312 -141.925781 8.394531 -134.675781 3.050781 -129.335938 C 1.527344 -127.808594 0 -126.664062 0 -124.757812 C 0 -123.613281 0.382812 -122.46875 1.144531 -121.324219 C 6.105469 -112.167969 9.917969 -102.628906 12.972656 -92.710938 C 15.640625 -83.171875 16.40625 -72.871094 20.21875 -63.332031 C 28.234375 -43.113281 51.886719 -6.867188 75.539062 -1.90625 C 79.355469 -1.144531 82.789062 -0.761719 86.605469 -0.761719 C 91.183594 -0.761719 95.378906 -0.382812 99.957031 -0.382812 C 101.484375 -0.382812 103.011719 0 104.535156 0 C 106.445312 0 108.734375 -0.382812 110.640625 -0.761719 C 114.457031 -1.527344 117.890625 -3.433594 121.324219 -4.960938 C 146.121094 -17.550781 162.527344 -38.152344 172.066406 -64.09375 C 176.644531 -76.683594 178.933594 -90.039062 183.511719 -103.011719 C 185.417969 -108.351562 187.707031 -114.074219 189.234375 -119.414062 C 189.996094 -122.085938 190.378906 -124.375 190.378906 -126.28125 Z M 123.992188 -73.25 C 118.652344 -62.570312 108.351562 -52.269531 95.761719 -52.269531 C 88.132812 -52.269531 81.644531 -57.226562 77.066406 -62.949219 C 63.714844 -79.355469 62.570312 -101.101562 70.960938 -119.414062 C 71.726562 -120.558594 72.488281 -122.085938 72.105469 -123.230469 C 72.105469 -124.757812 70.960938 -126.28125 70.199219 -127.425781 C 61.425781 -141.164062 68.292969 -159.476562 75.160156 -172.066406 C 77.828125 -176.261719 80.5 -180.457031 84.316406 -183.890625 C 88.511719 -187.324219 93.089844 -188.851562 98.433594 -188.851562 C 107.96875 -188.46875 114.835938 -181.222656 119.035156 -173.589844 C 123.613281 -166.722656 126.664062 -159.476562 128.191406 -151.464844 C 129.714844 -143.070312 132.003906 -135.4375 126.664062 -127.425781 C 125.902344 -126.28125 124.757812 -124.757812 124.757812 -123.230469 C 124.757812 -122.085938 125.136719 -120.558594 125.902344 -119.414062 C 132.386719 -104.917969 132.003906 -87.367188 123.992188 -73.25 Z M 123.992188 -73.25 "/></g></g></g><g fill="#fff2d8" fill-opacity="1"><g transform="translate(1041.7542, 391.342696)"><g><path d="M 212.125 -8.773438 C 206.019531 -31.285156 202.207031 -54.558594 202.585938 -78.210938 C 202.585938 -89.277344 204.113281 -99.578125 205.640625 -110.257812 C 206.019531 -113.691406 206.402344 -117.125 206.019531 -120.179688 C 205.640625 -125.519531 203.730469 -130.097656 201.824219 -134.675781 C 191.523438 -164.816406 196.101562 -197.628906 203.730469 -228.148438 C 204.496094 -231.199219 205.257812 -233.871094 204.496094 -236.921875 C 202.585938 -244.933594 193.046875 -246.84375 186.179688 -246.84375 C 180.078125 -247.605469 173.972656 -247.605469 167.867188 -247.605469 C 161.382812 -247.605469 155.277344 -247.605469 149.175781 -246.84375 C 138.492188 -245.699219 132.386719 -242.644531 127.808594 -232.726562 C 122.46875 -220.136719 117.125 -207.929688 111.402344 -195.71875 C 109.496094 -192.285156 109.113281 -191.902344 105.679688 -191.902344 C 104.917969 -192.285156 104.535156 -193.429688 103.773438 -194.191406 L 86.222656 -228.148438 C 83.554688 -233.109375 80.882812 -238.066406 77.066406 -242.265625 C 72.871094 -246.84375 68.671875 -247.222656 62.570312 -247.605469 C 53.03125 -247.605469 43.492188 -247.605469 33.957031 -246.460938 C 28.996094 -245.699219 24.035156 -245.316406 19.457031 -243.027344 C 11.828125 -239.59375 13.351562 -232.726562 14.117188 -225.476562 C 15.640625 -215.558594 16.785156 -205.640625 17.550781 -195.71875 C 17.929688 -189.234375 18.3125 -182.746094 17.929688 -175.878906 C 17.167969 -161 12.589844 -146.503906 5.722656 -133.148438 L 3.816406 -129.335938 C 3.433594 -127.425781 3.816406 -125.902344 4.195312 -123.992188 C 6.484375 -108.734375 9.917969 -93.855469 9.917969 -78.210938 C 10.300781 -54.558594 6.484375 -31.285156 0.382812 -8.773438 C -2.289062 0 11.445312 2.289062 25.5625 2.289062 C 36.625 2.289062 48.070312 0.761719 51.886719 0.382812 C 55.703125 0 60.28125 -0.761719 61.804688 -4.578125 C 64.859375 -9.917969 62.1875 -18.3125 61.425781 -24.035156 C 60.660156 -31.667969 59.898438 -66.765625 59.515625 -74.394531 C 58.753906 -89.65625 58.753906 -105.300781 61.425781 -120.179688 C 61.804688 -122.085938 62.570312 -124.375 64.859375 -124.757812 C 67.148438 -125.136719 69.054688 -122.46875 70.199219 -120.941406 C 78.972656 -111.402344 83.554688 -97.667969 87.367188 -85.460938 L 89.65625 -81.261719 C 91.945312 -78.59375 95.761719 -77.828125 98.8125 -77.066406 C 101.484375 -76.683594 104.15625 -75.921875 106.445312 -75.921875 C 109.113281 -75.921875 111.785156 -76.683594 113.691406 -77.828125 C 116.363281 -79.355469 117.890625 -83.554688 119.414062 -85.84375 L 134.292969 -111.402344 C 136.582031 -115.601562 139.253906 -120.179688 143.832031 -122.847656 C 145.359375 -123.613281 146.503906 -124.375 147.648438 -124.375 C 149.554688 -124.375 150.699219 -122.847656 151.082031 -120.179688 C 153.753906 -105.300781 153.753906 -89.65625 152.988281 -74.394531 C 152.609375 -66.765625 151.84375 -31.667969 151.082031 -24.035156 C 150.699219 -18.3125 147.648438 -9.917969 150.699219 -4.578125 C 152.609375 -0.761719 156.804688 0 161 0.382812 C 164.433594 0.761719 175.878906 2.289062 187.324219 2.289062 C 201.0625 2.289062 214.796875 0 212.125 -8.773438 Z M 212.125 -8.773438 "/></g></g></g><g clip-path="url(#fc9b144da4)"><path stroke-linecap="butt" transform="matrix(3.597542, 0, 0, 3.597542, 136.406461, 19.399682)" fill="none" stroke-linejoin="miter" d="M 52.713887 106.679485 C 52.610735 106.161553 52.507583 105.618648 52.170982 105.308106 C 51.548812 104.349335 50.151373 104.246183 48.986298 104.143031 C 43.911218 103.935641 40.079392 101.47628 38.396385 96.60859 C 38.293233 96.504352 38.293233 96.4012 38.293233 96.19381 C 38.188995 96.064598 38.188995 95.961446 38.188995 95.857208 L 37.956632 95.002675 C 37.541852 93.009127 37.64609 90.886366 37.4387 88.866758 L 37.4387 88.116463 C 37.334462 87.701683 37.334462 87.157692 37.128158 86.63976 C 36.376777 80.711233 34.150865 74.756646 30.44825 70.09526 C 30.111648 69.681566 29.696868 69.241813 29.696868 68.619643 C 29.593716 67.558806 31.069333 67.117967 31.716477 66.600035 C 34.046627 64.684664 35.522244 62.043972 36.273625 59.169831 C 37.23131 55.881996 37.334462 52.179381 36.687319 48.787308 C 35.419092 42.522179 31.716477 34.677196 24.933416 32.657587 C 20.583658 31.388274 15.897298 30.637979 11.34015 30.637979 C 8.80261 30.637979 6.369308 30.845369 3.93492 31.285122 C 2.640633 31.595664 1.372406 31.906206 0.647085 32.863891 C -0.3106 34.133204 -0.0000585126 35.945423 0.310483 37.525277 C 1.579796 43.039025 2.122702 48.684156 2.01955 54.405293 C 1.916398 57.694214 1.061865 60.878897 0.310483 64.037521 C 0.310483 64.787817 0.310483 65.43496 0.310483 66.160281 C 1.268169 70.743489 2.22694 75.506941 2.330092 80.167242 C 2.433244 86.096855 1.372406 91.740899 0.310483 97.566275 C 0.207331 97.979969 0.103094 98.628198 0.414721 98.93874 C 0.647085 99.14613 0.957627 99.249282 1.165017 99.352434 C 3.702557 100.103815 6.88724 100.103815 9.657143 100.103815 C 11.236998 100.103815 18.253508 99.585883 19.185134 98.187359 C 19.521735 97.876817 19.521735 97.358885 19.521735 96.919131 C 19.521735 95.649819 19.185134 94.484744 18.977744 93.216516 C 17.916906 88.453064 17.398975 83.662467 17.191585 78.794777 C 17.191585 78.147633 17.294737 76.879406 18.253508 76.879406 C 20.142819 76.879406 22.266665 83.455077 22.577207 84.30961 C 24.286273 89.487842 23.974645 94.588981 24.492577 100.103815 C 25.036568 104.556725 26.822727 108.906483 29.696868 112.401709 C 33.502636 116.958857 42.099 118.563685 47.924375 119.52137 C 48.675757 119.625608 49.633442 119.93615 50.383737 119.93615 C 51.005907 119.93615 51.548812 119.832998 51.963592 119.185855 C 52.507583 118.460533 52.507583 117.295458 52.713887 116.440925 C 52.818125 115.379002 53.025515 114.318165 53.025515 113.15309 C 53.128667 111.029244 53.025515 108.803331 52.713887 106.679485 Z M 22.913808 56.632291 C 21.644495 58.522688 19.521735 59.272983 17.294737 59.272983 L 16.959221 59.272983 C 16.751831 59.272983 16.647594 59.169831 16.544442 59.066679 C 16.337052 58.859289 16.337052 58.651899 16.2339 58.41845 C 15.379367 54.612683 15.586756 50.573467 16.44129 46.767699 C 16.544442 46.457158 16.647594 46.120556 16.854983 45.913166 C 17.062373 45.810014 17.294737 45.810014 17.606365 45.810014 C 23.121198 45.706862 26.098491 52.386771 22.913808 56.632291 Z M 96.400401 64.892054 C 96.400401 64.037521 96.193011 63.3122 95.650106 62.354514 C 94.174489 59.713822 93.630498 56.735443 92.905176 53.862388 C 89.617341 42.107399 84.309897 31.077733 70.639539 31.077733 C 60.774947 31.077733 56.528341 35.945423 51.971192 43.687254 C 50.366364 46.56031 49.201289 49.512629 48.580205 52.593075 C 48.036214 54.509531 47.828824 56.632291 47.284833 58.522688 C 46.663749 60.542296 45.809216 62.561904 44.333599 64.037521 C 43.893845 64.477275 43.479066 64.787817 43.479066 65.331808 C 43.479066 65.64235 43.583304 65.952892 43.789608 66.263433 C 45.188132 68.827033 46.223996 71.467725 47.078529 74.238714 C 47.828824 76.879406 48.036214 79.753548 49.098137 82.39424 C 51.324049 88.012225 57.900806 98.084207 64.476476 99.481645 C 65.538399 99.689035 66.496084 99.793273 67.558007 99.793273 C 68.826234 99.793273 69.991309 99.896425 71.260622 99.896425 C 71.700376 99.896425 72.115156 99.999577 72.528849 99.999577 C 73.072841 99.999577 73.693925 99.896425 74.237916 99.793273 C 75.299839 99.585883 76.257524 99.041892 77.215209 98.628198 C 84.102507 95.132973 88.659656 89.38469 91.300348 82.18685 C 92.568575 78.691625 93.215718 74.96295 94.485031 71.364573 C 95.027936 69.888956 95.650106 68.283042 96.089859 66.807425 C 96.297249 66.057129 96.400401 65.43496 96.400401 64.892054 Z M 77.940531 79.64931 C 76.464914 82.601629 73.590772 85.474685 70.095547 85.474685 C 67.971701 85.474685 66.185542 84.103306 64.891256 82.497392 C 61.188641 77.940243 60.878099 71.908564 63.208249 66.807425 C 63.415639 66.496883 63.623029 66.057129 63.518791 65.746587 C 63.518791 65.331808 63.208249 64.892054 63.000859 64.580427 C 60.541498 60.7486 62.457954 55.674606 64.373324 52.179381 C 65.124705 51.014306 65.848941 49.849231 66.910864 48.89046 C 68.075939 47.932775 69.344166 47.493021 70.845843 47.493021 C 73.486535 47.622233 75.402991 49.615781 76.568066 51.738542 C 77.836293 53.654998 78.690826 55.674606 79.105606 57.900518 C 79.545359 60.231754 80.166443 62.354514 78.690826 64.580427 C 78.484522 64.892054 78.147921 65.331808 78.147921 65.746587 C 78.147921 66.057129 78.251073 66.496883 78.484522 66.807425 C 80.270681 70.846641 80.166443 75.714331 77.940531 79.64931 Z M 139.137917 31.077733 C 136.056385 31.388274 133.079092 31.698816 130.127858 32.139656 L 125.57071 32.55335 C 125.130957 32.55335 124.716177 32.55335 124.276423 32.55335 C 123.343712 32.55335 122.489179 32.55335 121.531494 32.55335 C 120.67696 32.55335 119.822427 32.657587 119.098191 32.657587 C 115.706118 32.657587 113.68651 32.242808 109.544142 31.698816 C 108.482219 31.595664 107.421381 31.388274 106.256306 31.388274 C 105.841527 31.388274 105.297535 31.388274 104.883841 31.492512 C 104.13246 31.595664 103.277927 31.803054 102.864233 32.450197 C 102.553691 32.863891 102.449454 33.407883 102.346301 33.822662 C 101.491768 38.275573 101.59492 42.728483 102.21709 47.182479 C 102.346301 47.829622 102.553691 48.553858 103.174775 48.787308 C 103.277927 48.787308 103.408225 48.787308 103.511377 48.787308 C 104.13246 48.787308 104.986994 48.347554 105.634137 48.140164 C 106.566848 47.932775 107.861135 47.622233 109.129362 47.622233 C 113.68651 47.622233 113.68651 51.22061 113.68651 54.820073 C 113.789662 56.735443 113.583358 58.651899 113.246757 60.542296 C 112.936215 62.250277 111.666902 63.622741 111.56375 65.331808 C 111.56375 66.160281 111.874292 67.014815 112.081682 67.869348 C 114.10129 74.445018 114.748433 81.436554 114.10129 88.322767 C 113.8939 90.678976 113.47912 93.009127 113.142519 95.339277 C 113.039367 96.814894 111.874292 100.414357 114.10129 100.750958 C 116.22405 100.958348 118.34681 101.0615 120.469571 101.0615 C 122.903958 101.0615 125.337261 100.958348 127.90086 100.85411 C 128.418792 100.85411 129.065935 100.750958 129.273325 100.206967 C 129.687019 99.585883 129.169087 98.52396 129.065935 97.876817 C 128.858545 96.814894 128.729334 95.857208 128.626182 94.796371 C 128.418792 92.776763 128.314554 90.678976 128.211402 88.659368 C 128.211402 80.918623 127.564259 73.279943 130.541552 65.952892 C 130.64579 65.64235 130.748942 65.43496 130.748942 65.098358 C 130.748942 64.684664 130.64579 64.374123 130.4384 64.037521 C 128.521944 59.816974 128.10825 55.027463 129.169087 50.573467 C 129.376477 49.615781 129.687019 48.684156 130.4384 48.140164 C 131.188695 47.388783 132.35377 47.285631 133.415693 47.285631 C 135.538454 47.285631 135.538454 47.725385 137.532002 48.243316 C 138.075994 48.347554 138.593925 48.450706 139.137917 48.450706 C 140.613534 48.450706 141.053287 47.388783 141.260677 46.017404 C 141.674371 43.687254 141.881761 41.357104 141.778609 39.026954 C 141.778609 37.965031 141.778609 36.903108 141.674371 35.842271 C 141.674371 34.8835 141.674371 33.925814 141.571219 32.968129 C 141.363829 32.242808 141.157525 31.492512 140.509296 31.285122 C 140.406144 31.180885 140.198754 31.077733 139.99245 31.077733 Z M 164.802142 98.291596 C 165.527464 97.566275 165.527464 96.19381 165.320074 95.002675 C 165.009532 92.258831 164.90638 89.618139 164.595838 86.951388 C 164.259237 84.103306 163.948695 81.124927 163.948695 78.251871 C 163.948695 73.384181 164.595838 71.364573 166.071455 66.807425 C 166.278845 66.160281 166.485149 65.539198 166.174607 64.892054 C 163.430763 59.480373 163.300466 52.386771 163.844457 46.327946 C 164.154999 43.687254 164.595838 41.045476 165.320074 38.586115 C 165.760913 37.110498 167.23653 34.677196 166.381997 33.200493 C 165.864065 31.906206 157.371938 31.492512 155.999474 31.492512 C 154.084103 31.492512 148.56927 31.698816 147.404195 33.512121 C 146.989415 34.365568 147.196805 35.738033 147.299957 36.695718 C 147.404195 38.172421 147.817889 39.648038 148.051338 41.149714 C 148.56927 44.230159 148.879812 47.285631 148.879812 50.367162 C 148.982964 55.130615 148.36188 59.920126 146.757051 64.374123 C 146.445424 64.995206 146.23912 65.64235 146.23912 66.393731 C 146.23912 66.704273 146.342272 67.117967 146.445424 67.454568 C 148.56927 74.652408 149.319565 82.18685 147.714737 89.487842 C 147.299957 91.30006 146.757051 93.113364 146.549662 94.899523 C 146.342272 95.857208 146.342272 96.814894 146.757051 97.669427 C 147.196805 98.52396 148.051338 99.14613 148.879812 99.352434 C 149.837497 99.689035 150.795182 99.793273 151.753953 99.793273 C 153.125332 99.896425 154.497797 99.896425 155.792084 99.896425 C 157.68248 99.896425 163.430763 99.689035 164.802142 98.291596 Z M 185.57479 98.291596 C 185.57479 96.4012 184.953706 94.796371 183.555181 93.527058 C 182.286954 92.154593 180.7071 91.50745 178.791729 91.50745 C 176.875273 91.50745 175.296504 92.154593 174.027191 93.527058 C 172.655812 94.796371 172.007583 96.4012 172.007583 98.291596 C 172.007583 100.206967 172.655812 101.812881 174.027191 103.081108 C 175.296504 104.453573 176.875273 105.100716 178.791729 105.100716 C 180.7071 105.100716 182.286954 104.453573 183.555181 103.081108 C 184.953706 101.812881 185.57479 100.206967 185.57479 98.291596 Z M 243.80574 64.892054 C 243.80574 64.037521 243.59835 63.3122 243.055445 62.354514 C 241.578742 59.713822 241.035837 56.735443 240.310515 53.862388 C 237.02268 42.107399 231.715236 31.077733 218.043792 31.077733 C 208.1792 31.077733 203.93368 35.945423 199.376532 43.687254 C 197.771703 46.56031 196.606628 49.512629 195.984458 52.593075 C 195.441553 54.509531 195.234163 56.632291 194.690172 58.522688 C 194.069088 60.542296 193.214555 62.561904 191.738938 64.037521 C 191.299185 64.477275 190.884405 64.787817 190.884405 65.331808 C 190.884405 65.64235 190.987557 65.952892 191.194947 66.263433 C 192.593471 68.827033 193.629335 71.467725 194.482782 74.238714 C 195.234163 76.879406 195.441553 79.753548 196.50239 82.39424 C 198.729388 88.012225 205.306145 98.084207 211.881815 99.481645 C 212.943738 99.689035 213.901423 99.793273 214.963346 99.793273 C 216.231574 99.793273 217.396649 99.896425 218.665961 99.896425 C 219.105715 99.896425 219.520495 99.999577 219.934189 99.999577 C 220.47818 99.999577 221.099264 99.896425 221.643255 99.793273 C 222.704092 99.585883 223.662863 99.041892 224.620548 98.628198 C 231.507846 95.132973 236.063909 89.38469 238.705687 82.18685 C 239.973914 78.691625 240.621057 74.96295 241.89037 71.364573 C 242.433275 69.888956 243.055445 68.283042 243.495198 66.807425 C 243.702588 66.057129 243.80574 65.43496 243.80574 64.892054 Z M 225.34587 79.64931 C 223.870253 82.601629 220.996112 85.474685 217.500886 85.474685 C 215.37704 85.474685 213.590881 84.103306 212.296595 82.497392 C 208.59398 77.940243 208.283438 71.908564 210.613588 66.807425 C 210.820978 66.496883 211.027282 66.057129 210.92413 65.746587 C 210.92413 65.331808 210.613588 64.892054 210.406198 64.580427 C 207.946837 60.7486 209.862207 55.674606 211.778663 52.179381 C 212.528958 51.014306 213.25428 49.849231 214.316203 48.89046 C 215.481278 47.932775 216.749505 47.493021 218.251182 47.493021 C 220.891874 47.622233 222.80833 49.615781 223.973405 51.738542 C 225.241632 53.654998 226.096165 55.674606 226.510945 57.900518 C 226.950698 60.231754 227.571782 62.354514 226.096165 64.580427 C 225.888775 64.892054 225.552174 65.331808 225.552174 65.746587 C 225.552174 66.057129 225.656412 66.496883 225.888775 66.807425 C 227.67602 70.846641 227.571782 75.714331 225.34587 79.64931 Z M 308.058598 97.566275 C 306.375591 91.30006 305.313668 84.827542 305.41682 78.251871 C 305.41682 75.196399 305.8316 72.322258 306.271353 69.344965 C 306.375591 68.38728 306.478743 67.454568 306.375591 66.600035 C 306.271353 65.098358 305.728448 63.830131 305.210516 62.561904 C 302.336375 54.198989 303.604602 45.058633 305.728448 36.592566 C 305.934752 35.738033 306.168201 34.987737 305.934752 34.133204 C 305.41682 31.906206 302.776128 31.388274 300.860758 31.388274 C 299.151691 31.180885 297.468685 31.180885 295.759618 31.180885 C 293.973459 31.180885 292.264393 31.180885 290.581386 31.388274 C 287.604093 31.698816 285.895027 32.55335 284.6268 35.298279 C 283.151183 38.819564 281.649506 42.210551 280.069651 45.602624 C 279.55172 46.56031 279.422508 46.664547 278.490882 46.664547 C 278.257433 46.56031 278.154281 46.223708 277.946891 46.017404 L 273.079201 36.592566 C 272.328906 35.194042 271.577525 33.822662 270.515602 32.657587 C 269.350527 31.388274 268.185452 31.285122 266.50353 31.180885 C 263.836779 31.180885 261.195001 31.180885 258.554309 31.492512 C 257.156871 31.698816 255.784406 31.803054 254.515093 32.450197 C 252.392333 33.407883 252.807112 35.298279 253.039476 37.317888 C 253.454256 40.087791 253.764797 42.832721 253.972187 45.602624 C 254.101399 47.388783 254.204551 49.202087 254.101399 51.117458 C 253.86795 55.233767 252.599722 59.272983 250.683266 62.975598 L 250.165334 64.037521 C 250.062182 64.580427 250.165334 64.995206 250.269572 65.539198 C 250.916716 69.784718 251.848341 73.902113 251.848341 78.251871 C 251.978639 84.827542 250.916716 91.30006 249.207649 97.566275 C 248.457354 99.999577 252.289181 100.647806 256.1981 100.647806 C 259.279631 100.647806 262.464314 100.206967 263.525151 100.103815 C 264.587074 99.999577 265.855301 99.793273 266.296141 98.73135 C 267.124614 97.255733 266.399293 94.899523 266.166929 93.319668 C 265.959539 91.196908 265.752149 81.436554 265.648997 79.312708 C 265.441607 75.067188 265.441607 70.743489 266.166929 66.600035 C 266.296141 66.057129 266.50353 65.43496 267.124614 65.331808 C 267.771758 65.228656 268.289689 65.952892 268.626291 66.393731 C 271.059593 69.034423 272.328906 72.84019 273.389743 76.232263 L 274.036886 77.423397 C 274.659056 78.147633 275.719893 78.355023 276.574426 78.588473 C 277.325807 78.691625 278.050043 78.899014 278.698272 78.899014 C 279.422508 78.899014 280.173889 78.691625 280.716795 78.355023 C 281.442116 77.940243 281.88187 76.775168 282.296649 76.128025 L 286.439018 69.034423 C 287.060102 67.869348 287.811483 66.600035 289.07971 65.84974 C 289.520549 65.64235 289.831091 65.43496 290.141633 65.43496 C 290.685624 65.43496 290.996166 65.84974 291.099318 66.600035 C 291.850699 70.743489 291.850699 75.067188 291.61725 79.312708 C 291.514098 81.436554 291.306708 91.196908 291.099318 93.319668 C 290.996166 94.899523 290.141633 97.255733 290.996166 98.73135 C 291.514098 99.793273 292.679173 99.999577 293.870307 100.103815 C 294.801933 100.206967 297.986616 100.647806 301.1713 100.647806 C 305.003126 100.647806 308.808893 99.999577 308.058598 97.566275 Z M 308.058598 97.566275 " stroke="#fee6b2" stroke-width="2.784049" stroke-opacity="1" stroke-miterlimit="4"/></g><g clip-path="url(#54ca24bc82)"><g clip-path="url(#d8ef4046dd)"><g clip-path="url(#97d31cede5)"><path fill="#3e2028" d="M 243.585938 79.40625 C 257.851562 96.796875 219 137.289062 175.847656 159.511719 C 132.691406 181.730469 86.296875 179.039062 82.117188 156.933594 C 76.683594 128.175781 112.871094 133.53125 156.023438 111.308594 C 199.179688 89.089844 227.695312 60.027344 243.585938 79.40625 " fill-opacity="1" fill-rule="nonzero"/></g></g></g><g clip-path="url(#e6b47a4a3a)"><g clip-path="url(#5f0439b4f6)"><g clip-path="url(#9ec0452d6c)"><path fill="#3e2028" d="M 243.003906 78.277344 C 256.621094 94.402344 217.222656 133.832031 174.066406 156.054688 C 130.914062 178.273438 85.21875 176.953125 81.6875 156.09375 C 77.085938 128.964844 112.636719 133.082031 155.792969 110.859375 C 198.949219 88.640625 227.84375 60.320312 243.003906 78.277344 " fill-opacity="1" fill-rule="nonzero"/></g></g></g><g clip-path="url(#b41934e5f9)"><g clip-path="url(#9c0d120dee)"><g clip-path="url(#ab3f55923f)"><path fill="#3e2028" d="M 64.601562 57.199219 L 112.335938 152.230469 L 112.46875 152.167969 C 114.976562 157.15625 139.035156 150.136719 166.203125 136.492188 C 193.371094 122.847656 213.363281 107.738281 210.855469 102.75 L 163.125 7.714844 L 64.601562 57.199219 " fill-opacity="1" fill-rule="nonzero"/></g></g></g><g clip-path="url(#e2657e0ff6)"><g clip-path="url(#2fca05d8c4)"><g clip-path="url(#e28983a0de)"><path fill="#3e2028" d="M 163.125 7.714844 C 165.632812 12.703125 145.636719 27.8125 118.46875 41.460938 C 91.300781 55.105469 67.242188 62.121094 64.738281 57.132812 C 62.234375 52.140625 82.226562 37.035156 109.394531 23.390625 C 136.566406 9.746094 160.621094 2.726562 163.125 7.714844 " fill-opacity="1" fill-rule="nonzero"/></g></g></g><g clip-path="url(#231fdaa72b)"><g clip-path="url(#f738f0d82b)"><g clip-path="url(#49ff7593ed)"><path fill="#fee6b2" d="M 158.492188 119.707031 C 131.324219 133.351562 107.269531 140.371094 104.761719 135.382812 L 104.628906 135.449219 L 104.316406 134.828125 C 104.089844 134.855469 103.855469 134.875 103.621094 134.878906 L 112.335938 152.230469 L 112.46875 152.167969 C 114.976562 157.15625 139.035156 150.136719 166.203125 136.492188 C 193.371094 122.847656 213.363281 107.738281 210.855469 102.75 L 203.269531 87.640625 C 201.8125 93.796875 183.097656 107.351562 158.492188 119.707031 " fill-opacity="1" fill-rule="nonzero"/></g></g></g></svg>